<svg width="32" height="28" viewBox="0 0 32 28" fill="none" xmlns="http://www.w3.org/2000/svg">
<path d="M13.5 4H29.75M13.5 4C13.5 4.66304 13.2366 5.29893 12.7678 5.76777C12.2989 6.23661 11.663 6.5 11 6.5C10.337 6.5 9.70107 6.23661 9.23223 5.76777C8.76339 5.29893 8.5 4.66304 8.5 4M13.5 4C13.5 3.33696 13.2366 2.70107 12.7678 2.23223C12.2989 1.76339 11.663 1.5 11 1.5C10.337 1.5 9.70107 1.76339 9.23223 2.23223C8.76339 2.70107 8.5 3.33696 8.5 4M8.5 4H2.25M13.5 24H29.75M13.5 24C13.5 24.663 13.2366 25.2989 12.7678 25.7678C12.2989 26.2366 11.663 26.5 11 26.5C10.337 26.5 9.70107 26.2366 9.23223 25.7678C8.76339 25.2989 8.5 24.663 8.5 24M13.5 24C13.5 23.337 13.2366 22.7011 12.7678 22.2322C12.2989 21.7634 11.663 21.5 11 21.5C10.337 21.5 9.70107 21.7634 9.23223 22.2322C8.76339 22.7011 8.5 23.337 8.5 24M8.5 24H2.25M23.5 14H29.75M23.5 14C23.5 14.663 23.2366 15.2989 22.7678 15.7678C22.2989 16.2366 21.663 16.5 21 16.5C20.337 16.5 19.7011 16.2366 19.2322 15.7678C18.7634 15.2989 18.5 14.663 18.5 14M23.5 14C23.5 13.337 23.2366 12.7011 22.7678 12.2322C22.2989 11.7634 21.663 11.5 21 11.5C20.337 11.5 19.7011 11.7634 19.2322 12.2322C18.7634 12.7011 18.5 13.337 18.5 14M18.5 14H2.25" stroke="#2E294A" stroke-opacity="0.9" stroke-width="2.625" stroke-linecap="round" stroke-linejoin="round"/>
</svg>
