<svg width="35" height="35" viewBox="0 0 35 35" fill="none" xmlns="http://www.w3.org/2000/svg">
<path d="M3.28125 3.28125C2.99117 3.28125 2.71297 3.39648 2.50785 3.6016C2.30273 3.80672 2.1875 4.08492 2.1875 4.375C2.1875 4.66508 2.30273 4.94328 2.50785 5.1484C2.71297 5.35352 2.99117 5.46875 3.28125 5.46875H5.3025C5.55042 5.46875 5.76625 5.635 5.83042 5.87417L9.56083 19.8625C8.38917 20.1678 7.35184 20.8531 6.61135 21.811C5.87085 22.769 5.469 23.9455 5.46875 25.1562C5.46875 25.76 5.95875 26.25 6.5625 26.25H29.5312C29.8213 26.25 30.0995 26.1348 30.3046 25.9296C30.5098 25.7245 30.625 25.4463 30.625 25.1562C30.625 24.8662 30.5098 24.588 30.3046 24.3829C30.0995 24.1777 29.8213 24.0625 29.5312 24.0625H7.84292C8.06915 23.4226 8.48826 22.8686 9.04248 22.4768C9.59671 22.0851 10.2588 21.8748 10.9375 21.875H27.2971C27.502 21.875 27.7028 21.8175 27.8765 21.7089C28.0503 21.6004 28.1901 21.4452 28.28 21.261C29.945 17.8443 31.3869 14.3233 32.5967 10.7202C32.6445 10.5777 32.6624 10.4268 32.6492 10.277C32.6361 10.1273 32.5923 9.98183 32.5204 9.84977C32.4486 9.71771 32.3503 9.60188 32.2317 9.50951C32.1131 9.41714 31.9767 9.35022 31.831 9.31292C24.1395 7.35168 16.2197 6.43104 8.28333 6.57562L7.945 5.31125C7.78977 4.729 7.44656 4.21433 6.9687 3.84723C6.49083 3.48013 5.90509 3.28116 5.3025 3.28125H3.28125ZM5.46875 29.5312C5.46875 28.9511 5.69922 28.3947 6.10945 27.9845C6.51969 27.5742 7.07609 27.3438 7.65625 27.3438C8.23641 27.3438 8.79281 27.5742 9.20305 27.9845C9.61328 28.3947 9.84375 28.9511 9.84375 29.5312C9.84375 30.1114 9.61328 30.6678 9.20305 31.078C8.79281 31.4883 8.23641 31.7188 7.65625 31.7188C7.07609 31.7188 6.51969 31.4883 6.10945 31.078C5.69922 30.6678 5.46875 30.1114 5.46875 29.5312ZM24.0625 29.5312C24.0625 28.9511 24.293 28.3947 24.7032 27.9845C25.1134 27.5742 25.6698 27.3438 26.25 27.3438C26.8302 27.3438 27.3866 27.5742 27.7968 27.9845C28.207 28.3947 28.4375 28.9511 28.4375 29.5312C28.4375 30.1114 28.207 30.6678 27.7968 31.078C27.3866 31.4883 26.8302 31.7188 26.25 31.7188C25.6698 31.7188 25.1134 31.4883 24.7032 31.078C24.293 30.6678 24.0625 30.1114 24.0625 29.5312Z" fill="#6D697A"/>
</svg>
