<svg width="35" height="35" viewBox="0 0 35 35" fill="none" xmlns="http://www.w3.org/2000/svg">
<path d="M16.7271 5.60138C16.9322 5.39656 17.2102 5.28151 17.5 5.28151C17.7898 5.28151 18.0678 5.39656 18.2729 5.60138L30.9458 18.2743C31.0468 18.3787 31.1675 18.462 31.301 18.5192C31.4344 18.5765 31.578 18.6066 31.7232 18.6078C31.8684 18.609 32.0124 18.5812 32.1468 18.5262C32.2812 18.4711 32.4033 18.3899 32.506 18.2871C32.6086 18.1844 32.6898 18.0622 32.7447 17.9278C32.7996 17.7933 32.8272 17.6493 32.8259 17.5041C32.8246 17.3588 32.7943 17.2153 32.7369 17.0819C32.6796 16.9485 32.5962 16.8279 32.4917 16.727L19.8202 4.05409C19.5155 3.74939 19.1538 3.50769 18.7557 3.34279C18.3576 3.17789 17.9309 3.09302 17.5 3.09302C17.0691 3.09302 16.6424 3.17789 16.2443 3.34279C15.8462 3.50769 15.4845 3.74939 15.1798 4.05409L2.50687 16.727C2.40246 16.8279 2.31919 16.9487 2.26193 17.0821C2.20467 17.2156 2.17457 17.3592 2.17338 17.5044C2.17218 17.6496 2.19993 17.7936 2.25498 17.928C2.31004 18.0624 2.39131 18.1845 2.49406 18.2871C2.5968 18.3898 2.71896 18.4709 2.8534 18.5259C2.98784 18.5808 3.13188 18.6084 3.27711 18.6071C3.42233 18.6057 3.56584 18.5755 3.69925 18.5181C3.83267 18.4607 3.95332 18.3773 4.05416 18.2728L16.7271 5.60138Z" fill="white"/>
<path d="M17.5 7.92163L29.3985 19.8202C29.4423 19.8639 29.486 19.9048 29.5312 19.9456V28.9843C29.5312 30.4937 28.3063 31.7187 26.7969 31.7187H21.875C21.5849 31.7187 21.3067 31.6035 21.1016 31.3984C20.8965 31.1932 20.7812 30.915 20.7812 30.625V24.0625C20.7812 23.7724 20.666 23.4942 20.4609 23.2891C20.2558 23.0839 19.9776 22.9687 19.6875 22.9687H15.3125C15.0224 22.9687 14.7442 23.0839 14.5391 23.2891C14.334 23.4942 14.2188 23.7724 14.2188 24.0625V30.625C14.2188 30.915 14.1035 31.1932 13.8984 31.3984C13.6933 31.6035 13.4151 31.7187 13.125 31.7187H8.20312C7.47792 31.7187 6.78242 31.4306 6.26963 30.9178C5.75684 30.405 5.46875 29.7095 5.46875 28.9843V19.9456C5.51412 19.905 5.55837 19.8632 5.60146 19.8202L17.5 7.92163Z" fill="white"/>
</svg>
