<svg width="35" height="35" viewBox="0 0 35 35" fill="none" xmlns="http://www.w3.org/2000/svg">
<path d="M16.9823 30.4939L16.9721 30.4895L16.94 30.472C16.7523 30.3687 16.5661 30.2627 16.3815 30.1541C14.1616 28.835 12.0871 27.2854 10.1923 25.5311C6.83667 22.4001 3.28125 17.7539 3.28125 12.0314C3.28125 7.76135 6.87458 4.3751 11.2117 4.3751C12.4173 4.3692 13.6088 4.63518 14.6976 5.15328C15.7863 5.67137 16.7442 6.42824 17.5 7.3676C18.256 6.42805 19.2141 5.67106 20.3031 5.15296C21.3921 4.63486 22.5839 4.36898 23.7898 4.3751C28.1254 4.3751 31.7188 7.76135 31.7188 12.0314C31.7188 17.7553 28.1633 22.4016 24.8077 25.5297C22.913 27.284 20.8384 28.8336 18.6185 30.1526C18.4339 30.2618 18.2477 30.3682 18.06 30.472L18.0279 30.4895L18.0177 30.4953L18.0133 30.4968C17.8552 30.5805 17.679 30.6243 17.5 30.6243C17.321 30.6243 17.1448 30.5805 16.9867 30.4968L16.9823 30.4939Z" fill="#6D697A"/>
</svg>
