<svg width="35" height="35" viewBox="0 0 35 35" fill="none" xmlns="http://www.w3.org/2000/svg">
<path fill-rule="evenodd" clip-rule="evenodd" d="M10.9374 8.75C10.9374 7.00952 11.6288 5.34032 12.8595 4.10961C14.0903 2.8789 15.7595 2.1875 17.4999 2.1875C19.2404 2.1875 20.9096 2.8789 22.1403 4.10961C23.371 5.34032 24.0624 7.00952 24.0624 8.75C24.0624 10.4905 23.371 12.1597 22.1403 13.3904C20.9096 14.6211 19.2404 15.3125 17.4999 15.3125C15.7595 15.3125 14.0903 14.6211 12.8595 13.3904C11.6288 12.1597 10.9374 10.4905 10.9374 8.75ZM5.47014 29.3198C5.51932 26.1617 6.80837 23.1497 9.05905 20.9338C11.3097 18.7179 14.3415 17.4759 17.4999 17.4759C20.6584 17.4759 23.6902 18.7179 25.9408 20.9338C28.1915 23.1497 29.4806 26.1617 29.5297 29.3198C29.5335 29.5324 29.4753 29.7415 29.3621 29.9215C29.2489 30.1015 29.0857 30.2446 28.8924 30.3333C25.3183 31.9721 21.4318 32.8178 17.4999 32.8125C13.437 32.8125 9.57681 31.9258 6.10744 30.3333C5.91419 30.2446 5.75098 30.1015 5.6378 29.9215C5.52461 29.7415 5.46635 29.5324 5.47014 29.3198Z" fill="#6D697A"/>
</svg>
